<svg xmlns="http://www.w3.org/2000/svg" viewBox="0 0 200 200"><defs><style>.a{fill:#fff;}</style></defs><title>тест с 6 мин ходьбой</title><circle class="a" cx="116.33" cy="57.2" r="14.21" transform="translate(-9.5 26.03) rotate(-12.27)"/><path class="a" d="M127.31,115.84l-2.94-23.92h0l9.24,10.58h0l16.09,8.57a5.82,5.82,0,0,0,7.53-1.79h0a4.81,4.81,0,0,0-1.9-6.9l-15.87-8.74h0L126,78.36h0l-21.89-3a6.78,6.78,0,0,0-5.2,1.35L84.73,88a6.56,6.56,0,0,0-2.45,4.16L80,107.86a4.85,4.85,0,0,0,5.07,5.31h0a5.86,5.86,0,0,0,5.83-4.77l1.54-12.49h0l7.27-5.7h0l-3,32.32h0l-.41,15.05h0l-14.62,22a6.78,6.78,0,0,0,2,9.82h0a8.29,8.29,0,0,0,11-1.9L110,144.71a5.48,5.48,0,0,0,.91-1.95l3-17.25h0L121,140h0l6.37,26.12c.54,3.84,4.32,6.6,8.54,6.21h0c4.37-.41,5.87-4.46,5.32-8.45l-4.49-24a17.73,17.73,0,0,0-2.23-6.43h0l-7.24-17.59Z"/><path class="a" d="M65.44,32.16A18.92,18.92,0,1,0,84.36,51.08,18.94,18.94,0,0,0,65.44,32.16Zm9.3,31.72L63.45,53.25V36.71h4V51.53l10,9.44Z"/><path class="a" d="M65.44,27.64A23.44,23.44,0,1,0,88.89,51.08,23.44,23.44,0,0,0,65.44,27.64Zm0,45.36A21.92,21.92,0,1,1,87.36,51.08,21.94,21.94,0,0,1,65.44,73Z"/></svg>