<svg xmlns="http://www.w3.org/2000/svg" viewBox="0 0 200 200"><defs><style>.a{fill:#fff;}</style></defs><title>тревога</title><path class="a" d="M100,150.22A50.22,50.22,0,1,1,150.22,100,50.28,50.28,0,0,1,100,150.22Zm0-93.13A42.9,42.9,0,1,0,142.9,100,43,43,0,0,0,100,57.1Z"/><path class="a" d="M48,133a3.66,3.66,0,0,1-5.15-1.36A66.62,66.62,0,0,1,42.49,69a3.67,3.67,0,0,1,5.15-1.45h0A3.64,3.64,0,0,1,49,72.31a59.3,59.3,0,0,0,.29,55.92A3.64,3.64,0,0,1,48,133Z"/><path class="a" d="M152,133h0a3.64,3.64,0,0,1-1.3-4.81A59.3,59.3,0,0,0,151,72.31a3.64,3.64,0,0,1,1.35-4.8h0A3.67,3.67,0,0,1,157.51,69a66.62,66.62,0,0,1-.34,62.73A3.66,3.66,0,0,1,152,133Z"/><path class="a" d="M35.84,140.68a3.67,3.67,0,0,1-5.15-1.36,81.24,81.24,0,0,1-.4-78,3.67,3.67,0,0,1,5.13-1.41h0a3.64,3.64,0,0,1,1.33,4.84,73.92,73.92,0,0,0,.37,71.12,3.64,3.64,0,0,1-1.29,4.85Z"/><path class="a" d="M164.16,140.68h0a3.64,3.64,0,0,1-1.29-4.85,73.93,73.93,0,0,0,.37-71.12,3.64,3.64,0,0,1,1.33-4.84h0a3.67,3.67,0,0,1,5.13,1.41,81.24,81.24,0,0,1-.4,78A3.67,3.67,0,0,1,164.16,140.68Z"/><path class="a" d="M94.68,127.16a5.62,5.62,0,0,1,5.65-5.94c3.45,0,5.65,2.49,5.65,5.94s-2.2,5.94-5.65,5.94A5.62,5.62,0,0,1,94.68,127.16Zm2.4-13.7-1.34-46h9.2l-1.34,46Z"/></svg>