<svg xmlns="http://www.w3.org/2000/svg" viewBox="0 0 200 200"><defs><style>.a{fill:#000;}</style></defs><title>аритмии</title><path class="a" d="M159.65,66.07c-20.23-36.3-57.12-8.89-59.65-6.94-2.53-1.95-39.42-29.36-59.65,6.94-5.79,10.38-2.77,22.29,4.3,33.88l7.7-16.16a3.07,3.07,0,0,1,5.75.63l5.12,22.41,8.94-41.73a3.07,3.07,0,0,1,6,.25l7.34,57.1L98.38,90a3.07,3.07,0,0,1,5.78.22l6.29,20.27,3.36-9.51a3.07,3.07,0,0,1,2.89-2h22.6v5H118.06l-4.84,13.72a3.07,3.07,0,0,1-5.82-.11L101,96.91,87.43,131.27a3.07,3.07,0,0,1-2.85,1.94l-.38,0a3.07,3.07,0,0,1-2.66-2.65L74.68,77.2l-8.4,39.22a3,3,0,0,1-3,2.42h0a3,3,0,0,1-3-2.38L54.46,91l-6.6,13.86c17,24,48.69,45.41,52,47.62v.19l.14-.09.14.09v-.19C105.26,149,178.34,99.59,159.65,66.07Z"/></svg>