<svg xmlns="http://www.w3.org/2000/svg" viewBox="0 0 200 200"><defs><style>.a{fill:#000;}</style></defs><title>велосипед</title><path class="a" d="M142.25,89.16a28.61,28.61,0,0,0-7.68,1.05l-8.11-21.9-.12-10.08h16.39V53.45H121.49l.17,14.11L92,89.52,83.37,77.7,89,77l.18-7.65-20.53-.5-.18,10.84,9.17-1.2,10.3,14.09L79.3,98.93a28.68,28.68,0,1,0,7.06,21.17l4,0,38.32-32,1.41,3.81a28.68,28.68,0,1,0,12.17-2.71Zm-63.7,16.27a24.06,24.06,0,0,1,3.31,9.91l-16.8.08Zm-2.85-3.84-3.88,2.87,3.39-3.39Zm-17.47-8a24.14,24.14,0,0,1,16.3,6.76l-7.92,7.92-8.38,6.2Zm-1,0v21.6l-.84.62L41,100.4A24.14,24.14,0,0,1,57.27,93.63Zm-17,7.44,15.36,15.36-1.27.94H33.53A24.14,24.14,0,0,1,40.29,101.07Zm-6.76,17.26H53.09l-2.63,1.95,4.22,0L40.29,134.64A24.14,24.14,0,0,1,33.53,118.33Zm23.74,23.74A24.14,24.14,0,0,1,41,135.31L56,120.26h1.25Zm1,0V120.24h1.23L74.52,135.3A24.12,24.12,0,0,1,58.23,142.08Zm17-7.45L60.8,120.23l21.07-.11A24.14,24.14,0,0,1,75.2,134.63ZM88.6,115.31H86.33a28.49,28.49,0,0,0-4.18-12.55l40.79-30.2,4,10.73Zm43-19.23,6.17,16.66L125.47,100.4A24.34,24.34,0,0,1,131.64,96.08Zm-6.85,5,13.81,13.81.92,2.5H118A24.14,24.14,0,0,1,124.79,101.07ZM118,118.33h21.85l.13.35,1-.35h.14l-16.3,16.3A24.14,24.14,0,0,1,118,118.33Zm23.74,23.74a24.14,24.14,0,0,1-16.3-6.76l16.3-16.3Zm0-32.4-5.65-15.26a24.17,24.17,0,0,1,5.65-.77Zm24.7,7.7H143.54l1-.35-.2-.54,15.41-15.41A24.14,24.14,0,0,1,166.47,117.38ZM142.73,93.64A24.14,24.14,0,0,1,159,100.4l-15.1,15.1-1.2-3.24Zm0,48.44V119l16.3,16.3A24.14,24.14,0,0,1,142.73,142.08Zm17-7.44-16.3-16.3h23.07A24.14,24.14,0,0,1,159.71,134.64Z"/></svg>