<svg xmlns="http://www.w3.org/2000/svg" viewBox="0 0 200 200"><defs><style>.a{fill:#fff;}</style></defs><title>жалобы</title><path class="a" d="M68.15,92.48a38.32,38.32,0,1,0,38.32,38.32A38.32,38.32,0,0,0,68.15,92.48ZM54,118.14a4.9,4.9,0,1,1-4.9,4.9A4.9,4.9,0,0,1,54,118.14ZM84.57,151.2c-17.7-14-32.44-.67-33.06-.09l-2.41-2.59c.17-.16,17.54-16,37.66-.1Zm1.89-26.32a4.9,4.9,0,1,1-2.71-6.39A4.9,4.9,0,0,1,86.46,124.88Z"/><path class="a" d="M132.72,30.88C112,30.88,95.26,44.2,95.26,60.63a24.61,24.61,0,0,0,3.31,12.24,28.83,28.83,0,0,0,3.37,4.71l-1.68,13.51,15.3-3.9.15-.06a45.31,45.31,0,0,0,17,3.24c20.69,0,37.46-13.32,37.46-29.75S153.4,30.88,132.72,30.88Zm-7.08,38H112.59V50.7h13.05Zm22,2.21h-5.29s3,6,.73,9.94a2.88,2.88,0,0,1-5.37-1.13,6.7,6.7,0,0,1,0-.83,9.71,9.71,0,0,0-.64-3.74c-1.06-2.69-3.48-6.51-8.63-6.27V51.25s9.82-6,15.78-5.25c.45.06.9.09,1.35.11,1.79.11,6,.85,5.29,5.5,0,0,2.39,3.12,0,5.88,0,0,2.76,2.57-.18,5.88l.1.09A4.45,4.45,0,0,1,147.63,71.1Z"/></svg>