<svg xmlns="http://www.w3.org/2000/svg" viewBox="0 0 200 200"><defs><style>.a{fill:#fff;}</style></defs><title>курсовая терапия</title><path class="a" d="M101.07,119.63a33.33,33.33,0,1,0,5.56,18.43A33.3,33.3,0,0,0,101.07,119.63ZM43,138.06a30.33,30.33,0,0,1,53.8-19.21L46.26,151.79A30.22,30.22,0,0,1,43,138.06Zm30.33,30.33A30.2,30.2,0,0,1,49.5,156.84l50.6-33a30.33,30.33,0,0,1-26.79,44.55Z"/><path class="a" d="M167,80.62a26.14,26.14,0,0,0-52.28,0v31.69h0v32.94a26.14,26.14,0,0,0,52.28,0V113.56h0Zm-3,64.63a23.14,23.14,0,0,1-46.28,0V115.31H164Z"/><path class="a" d="M64,34.11a25.5,25.5,0,1,0,25.5,25.5A25.53,25.53,0,0,0,64,34.11Zm12.4,42.32-14.88-14V40.61h5V60.26L79.8,72.79Z"/><path class="a" d="M64,28.61a31,31,0,1,0,31,31A31,31,0,0,0,64,28.61Zm0,59.5a28.5,28.5,0,1,1,28.5-28.5A28.53,28.53,0,0,1,64,88.11Z"/></svg>