<svg xmlns="http://www.w3.org/2000/svg" viewBox="0 0 200 200"><defs><style>.a{fill:#fff;}</style></defs><title>прибор</title><path class="a" d="M165.08,74.79V71.58H150.88V67.23a8.48,8.48,0,0,0-8.48-8.48H40.19a8.48,8.48,0,0,0-8.48,8.48v65.54a8.48,8.48,0,0,0,8.48,8.48H142.4a8.48,8.48,0,0,0,8.48-8.48v-1.6h14.21V117H150.88v-9.17H161V94.5H150.88V84.42h14.21V81.21h3.21V74.79ZM42.71,104.13a3.21,3.21,0,0,1-6.42,0V97.71a3.21,3.21,0,0,1,6.42,0Zm89.83,19.48a4.35,4.35,0,0,1-4.35,4.35H54.85a4.35,4.35,0,0,1-4.35-4.35V75.94a4.35,4.35,0,0,1,4.35-4.35h73.33a4.35,4.35,0,0,1,4.35,4.35Z"/></svg>