<svg xmlns="http://www.w3.org/2000/svg" viewBox="0 0 200 200"><defs><style>.a{fill:#000;}</style></defs><title>одышка</title><circle class="a" cx="99.36" cy="44.33" r="15.68" transform="translate(-7.15 22.13) rotate(-12.27)"/><path class="a" d="M137,71.61a7.25,7.25,0,0,1-3.1-.73l.89-1.79c.12.06,3.07,1.48,4.47-.62a2.32,2.32,0,0,0-.62-3.36l-19.07-8.58.82-1.82,19.3,8.7a4.33,4.33,0,0,1,1.24,6.18A4.5,4.5,0,0,1,137,71.61Z"/><path class="a" d="M136.27,58.39a3.76,3.76,0,0,1-.67-.06l-.16,0L120.22,52.8l.68-1.88L136,56.37A1.55,1.55,0,0,0,137.89,55c.31-1.73-2-2.47-2-2.47l.6-1.91c1.38.43,3.86,2,3.35,4.74A3.49,3.49,0,0,1,136.27,58.39Z"/><path class="a" d="M125.9,162l-5-26.49a19.55,19.55,0,0,0-2.46-7.09l-8-19.41-.82-6.68-6.16.43h-.39A5.4,5.4,0,0,1,102.59,92l5.75-.54-1.09-8.84.28-.18,5,8.62.19,0,0,.42,0,.08h0l0,.5-10.16,1a4.4,4.4,0,0,0,.76,8.77l18-1.26a4.61,4.61,0,0,0,4.27-5s0-4,0-4.41h0v0h0L112.33,67.12,84.92,64.36a7.47,7.47,0,0,0-5.73,1.49L63.54,78.32a7.24,7.24,0,0,0-2.7,4.59l-2.54,17.3c-.46,3.1,2.18,5.85,5.6,5.85h0a6.46,6.46,0,0,0,6.43-5.26L72,87h0l8-6.29-3.27,35.65L76.32,133,60.19,157.28a7.48,7.48,0,0,0,2.25,10.83h0A9.14,9.14,0,0,0,74.57,166l16.87-25.16a6,6,0,0,0,1-2.15l3.36-19,7.79,16,7,28.81c.59,4.24,4.77,7.28,9.42,6.85C124.86,170.87,126.52,166.39,125.9,162Z"/></svg>