<svg xmlns="http://www.w3.org/2000/svg" viewBox="0 0 200 200"><defs><style>.a{fill:#000;}</style></defs><title>замена электрода</title><path class="a" d="M143.64,91a76.46,76.46,0,0,0-8.94-18.3l-.3-.44h-1.1c-8.25-14.77-18-21.44-24.85-24.42a20.82,20.82,0,0,0-16.91,0c-6.82,3-16.6,9.65-24.85,24.42H65.6l-.3.44a76.51,76.51,0,0,0-8.94,18.3c-5,14.51-4.38,28.15,1.66,39.44l.28.53h1.18a45.21,45.21,0,0,0,12.87,14.16,47.32,47.32,0,0,0,55.31,0,45.21,45.21,0,0,0,12.87-14.16h1.18l.28-.53C148,119.1,148.59,105.46,143.64,91Zm-3.14,38h-81c-5.59-10.82-6-23.37-1.25-37.32a74.94,74.94,0,0,1,8.41-17.38h66.68a74.87,74.87,0,0,1,8.41,17.38h0C146.5,105.54,146.08,118.09,140.5,128.92Z"/><circle class="a" cx="100" cy="104.4" r="11.16"/></svg>