<svg xmlns="http://www.w3.org/2000/svg" viewBox="0 0 200 200"><defs><style>.a{fill:#000;}</style></defs><title>усталость</title><rect class="a" x="47.26" y="127" width="52.72" height="12.98" rx="5.23" ry="5.23"/><path class="a" d="M142.65,28.79a19.22,19.22,0,0,0-7.81-.58l-3.74,1.33a3.51,3.51,0,0,1-.49.42,14.78,14.78,0,0,0-6,19.37c2.88,6.13,9.5,9.33,16.55,8,6.23-1.19,11.19-7,11.59-13.61A15,15,0,0,0,142.65,28.79Z"/><path class="a" d="M136.73,117.24c-.06-.4-.16-.81-.23-1.21-1.35-7.37-2.76-14.73-4.05-22.12-1.48-8.47-2.86-17-4.29-25.43a80.15,80.15,0,0,1-1.33-7.92,15.78,15.78,0,0,0-2.92-8.76c-3.6-4.81-9.79-6.52-16.07-4.45-3,1-8.29,4.52-11.55,7.56a48.87,48.87,0,0,0-14.51,24.9A47,47,0,0,0,82,103.37c1.08,4,2.46,7.83,3.9,11.66a8.6,8.6,0,0,0,5.78,5.49l-.16.1,29.07,7.69a3.71,3.71,0,0,1,2.75,3.86l-2.06,31.44a7.81,7.81,0,0,0,6.68,8.31l.32-.4a7.24,7.24,0,0,0,8.57-6.65l3.28-41.46A6.38,6.38,0,0,0,136.73,117.24ZM114.61,76.63,119.47,107c-2.43-.75-4.62-1.42-6.78-2.13a1.12,1.12,0,0,1-.59-.62c-1.67-4.56-3.24-9.14-3.21-14.09C108.9,85,110.15,80.37,114.61,76.63Z"/></svg>