<svg xmlns="http://www.w3.org/2000/svg" viewBox="0 0 200 200"><title>лого</title><path d="M65.8,106.29s3.1-28.68,26.43-53.09c0,0,32.47-33.4,61.94-5.42,0,0-5.89-3.6-21.28,2.85,0,0-45.95,21.92-46.71,81.53C86.17,132.17,75.89,123.82,65.8,106.29Z"/><path d="M84,58.8c.29.23,6.4-9.52,16-15.29,0,0-28.12-19.21-40,2.4C60,45.92,71,48.42,84,58.8Z"/><path d="M64.43,37.48S39.66,54,61.82,104.35c0,0,20,46,67.89,49.43,0,0-25.59,23-57.14,1.12,0,0-36.19-22.9-40.78-66.87C31.8,88,25.64,48.93,64.43,37.48Z"/><path d="M104.12,81s8.53-12.57,17-19.27c0,0,13.86,19.57,17.34,37.39,0,0-8.38,17.47-20,28.76C118.47,127.86,116.52,101.35,104.12,81Z"/><path d="M144.82,49.87S163.74,43,168.18,72.72c0,0,6.49,44.38-35.8,78.68,0,0-15.44-1-28.26-7.72,0,0,26.58-18.53,36.19-43.38C140.84,98.92,153.42,70.09,144.82,49.87Z"/></svg>