<svg xmlns="http://www.w3.org/2000/svg" viewBox="0 0 200 200"><defs><style>.a{fill:#000;}</style></defs><title>еда</title><path class="a" d="M124,69.49c-28.56,6.55-44.95,0-44.95,0C56.3,65.6,47.86,79.7,44.77,91.8A52.1,52.1,0,0,0,44.11,114c6.48,35.62,20.17,47,30.36,50.31a18.12,18.12,0,0,0,16.34-2.88c8-5.91,16.54-2.39,21.21.49a17.25,17.25,0,0,0,15.55,1.5c7.14-2.92,12.92-9.53,17.22-16.26a76.61,76.61,0,0,0,11.5-33.93C161.37,61.15,124,69.49,124,69.49Zm19.29,34.65a4.42,4.42,0,0,1-3.9,3.92c-1.4.12-3-.44-4.62-2.68a9.76,9.76,0,0,1-1.61-7c.72-5,1.25-15.17-6.12-16.92C127.09,81.43,146,83.19,143.33,104.14Z"/><path class="a" d="M115.6,46.52l-3.71-5.94A31.48,31.48,0,0,0,99.72,54.15c-1.53-7.5-6.94-16.74-23.82-19.31,0,0-5.41,28.9,21,29.73a26,26,0,0,0-.11,4.68l7-.64A25,25,0,0,1,115.6,46.52Z"/></svg>