<svg xmlns="http://www.w3.org/2000/svg" viewBox="0 0 200 200"><defs><style>.a{fill:#fff;}</style></defs><title>активный ортостаз</title><path class="a" d="M108.85,80.83a16.91,16.91,0,0,1-3.08-.29q-.62-.12-1.21-.27l.51-1.93q.53.14,1.07.24a14.75,14.75,0,0,0,3.57.23l.12,2ZM115,79.64l-.74-1.86a14.75,14.75,0,0,0,4-2.39l1.28,1.53A16.76,16.76,0,0,1,115,79.64ZM99.72,78.11a16.65,16.65,0,0,1-3.91-3.57l1.56-1.25a14.65,14.65,0,0,0,3.44,3.14ZM123,72.93l-1.7-1.05a14.61,14.61,0,0,0,1.79-4.3L125,68A16.6,16.6,0,0,1,123,72.93Zm-29.81-3a16.56,16.56,0,0,1-1-5.2l2-.07a14.54,14.54,0,0,0,.9,4.57Zm30.25-7a14.56,14.56,0,0,0-1.13-4.52l1.84-.79a16.58,16.58,0,0,1,1.28,5.14Zm-29-1.46-2-.37a16.64,16.64,0,0,1,1.79-5l1.75,1A14.65,14.65,0,0,0,94.42,61.46Zm25.41-7a14.58,14.58,0,0,0-3.6-3l1-1.73a16.62,16.62,0,0,1,4.09,3.37Zm-21-1.06-1.36-1.47a16.78,16.78,0,0,1,4.4-2.94l.83,1.82A14.75,14.75,0,0,0,98.87,53.4Zm13-3.59-.36-.07a14.8,14.8,0,0,0-4.29-.17l-.22-2a16.82,16.82,0,0,1,4.88.19l.41.08Z"/><rect class="a" x="105.64" y="147.61" width="2.5" height="2" transform="translate(-58.89 226.24) rotate(-79.36)"/><rect class="a" x="106.42" y="141.75" width="3.14" height="2" transform="translate(-52.17 222.69) rotate(-79.42)"/><polygon class="a" points="109.84 138.31 107.87 137.94 108.15 136.46 108.02 136.44 108.66 133 110.63 133.37 110.35 134.85 110.48 134.88 109.84 138.31"/><path class="a" d="M111.56,128.38l-2-.37.93-5,2,.37Zm-24.92-4.72-2-.37.93-5,2,.37Zm26.79-5.26-2-.37.93-5,2,.37Zm-24.92-4.72-2-.37.93-5,2,.37Zm26.79-5.26-2-.37.93-5,2,.37ZM90.38,103.7l-2-.37.7-3.73a1.07,1.07,0,0,0,0-.19A1,1,0,0,0,89,99l1.8-.87a3,3,0,0,1,.25,1.87Zm26.79-5.26-2-.37.93-5,2,.37Zm-32-.62-5-.93.37-2,5,.93Zm-10-1.87-5-.93.37-2,5,.93ZM65,93.74a7.8,7.8,0,0,1-3.82-4.22l1.87-.71a5.8,5.8,0,0,0,2.84,3.14Zm49.84-4a2.85,2.85,0,0,0-1-.37l-3.6-.67.37-2,3.6.67a4.87,4.87,0,0,1,1.65.63Zm-9.57-2-5-.93.37-2,5,.93Zm-10-1.87-5-.93.37-2,5,.93Zm-32.2-1.28-1.86-.74a7.78,7.78,0,0,1,3.9-4.14L66,81.5A5.79,5.79,0,0,0,63.11,84.58ZM85.33,84l-5-.93.37-2,5,.93Zm-10-1.87-5-.93.37-2,5,.93Z"/><rect class="a" x="83.23" y="128.75" width="2.5" height="2" transform="translate(-58.57 188.97) rotate(-79.42)"/><circle class="a" cx="156.77" cy="136.73" r="15.77"/><path class="a" d="M92.2,128.75l-17.1-12.18a4.31,4.31,0,0,0-4.85-.1L40.67,135.69h0l-6-.06a7.17,7.17,0,0,0-7.24,7.17h0A7.17,7.17,0,0,0,34.62,150H87.39c0,1.25,4.62,2.27,5.87,2.27h43.52V128.75Zm-19.51,2,4.38,4.84-14.25.13,7.52-5.24A1.78,1.78,0,0,1,72.69,130.71Z"/></svg>