<svg xmlns="http://www.w3.org/2000/svg" viewBox="0 0 200 200"><defs><style>.a{fill:#fff;}</style></defs><title>другая боль</title><circle class="a" cx="89.12" cy="57.8" r="15.48"/><polygon class="a" points="132.63 18.98 148.27 19.14 133.08 42.1 146.67 42.24 117.81 72.53 129.6 49.54 119.42 48.76 132.63 18.98"/><path class="a" d="M126.37,101.25l-3-5.6.09.17L109.37,76.48H108l-37.65.22H69.18L55.09,95.94l.09-.17-3,5.57A3.94,3.94,0,0,0,54,106.78l16.23,7.69.09-.19,2.88,1.4a4.82,4.82,0,0,0,6.39-2.12,4.66,4.66,0,0,0,.27-3.62,4.72,4.72,0,0,0-2.43-2.76l-7.54-3.67.25-.52-4.94-2.25,5.07-6v7.93l0-.1,7.54,3.67a5.71,5.71,0,0,1,2.94,3.34,5.65,5.65,0,0,1-.32,4.39,5.83,5.83,0,0,1-7.72,2.57l-2.49-1.21v57a8.64,8.64,0,0,0,17.27,0V134.92h3.32v37.46A8.64,8.64,0,0,0,99.55,181h0a8.64,8.64,0,0,0,8.64-8.64v-57l-2.43,1.19a5.77,5.77,0,1,1-5.1-10.35l7.54-3.69V94.59l5.13,6.06-4.82,2.5.14.29-7.54,3.69a4.76,4.76,0,0,0-2.16,6.42,4.81,4.81,0,0,0,6.39,2.13l2.88-1.41.1.2,16.22-7.75A4,4,0,0,0,126.37,101.25Z"/></svg>