<svg xmlns="http://www.w3.org/2000/svg" viewBox="0 0 200 200"><defs><style>.a{fill:#000;}</style></defs><title>другие эмоц</title><path class="a" d="M100.19,111.92a12.5,12.5,0,1,0,12.5,12.5A12.51,12.51,0,0,0,100.19,111.92Z"/><path class="a" d="M100,40.31A59.69,59.69,0,1,0,159.69,100,59.69,59.69,0,0,0,100,40.31ZM70.33,87.92A7.64,7.64,0,1,1,78,95.56,7.64,7.64,0,0,1,70.33,87.92Zm29.86,54a17.5,17.5,0,1,1,17.5-17.5A17.52,17.52,0,0,1,100.19,141.92Zm21.26-46.36a7.64,7.64,0,1,1,7.64-7.64A7.64,7.64,0,0,1,121.45,95.56Z"/></svg>