<svg xmlns="http://www.w3.org/2000/svg" viewBox="0 0 200 200"><defs><style>.a{fill:#fff;}</style></defs><title>боль</title><circle class="a" cx="99.84" cy="44.07" r="16.07"/><path class="a" d="M138.52,89.18l-3.11-5.82.09.17L120.87,63.47h-1.46l-39.1.23H79.13l-14.63,20,.09-.17-3.11,5.78a4.09,4.09,0,0,0,1.93,5.65l16.85,8,.09-.18,3,1.46A5,5,0,0,0,90,102a4.86,4.86,0,0,0,.28-3.77,4.92,4.92,0,0,0-2.53-2.87l-7.83-3.81.25-.52L75,88.65l5.27-6.19V90.7l0-.09,7.83,3.81a5.91,5.91,0,0,1,3,3.46,5.85,5.85,0,0,1-.33,4.54,6,6,0,0,1-8,2.66l-2.59-1.26V163a9,9,0,1,0,17.94,0V124.14h3.45V163a9,9,0,1,0,17.94,0V103.84l-2.54,1.24a6,6,0,1,1-5.28-10.71l7.82-3.83V82.27L125,88.56l-5,2.59.14.28-7.83,3.84A5,5,0,0,0,110,102a5,5,0,0,0,6.66,2.22l3-1.46.09.19,16.85-8A4.13,4.13,0,0,0,138.52,89.18ZM110,89.56,89.56,111l8.35-16.29-7.22-.56,9.37-21.1,11.08.11L100.38,89.46Z"/></svg>