<svg xmlns="http://www.w3.org/2000/svg" viewBox="0 0 200 200"><defs><style>.a{fill:#fff;}</style></defs><title>сердцебиение</title><path class="a" d="M145.1,82c-15.06-27-42.51-6.62-44.4-5.17C98.82,75.35,71.37,54.94,56.3,82c-13.91,25,40.48,61.75,44.29,64.29v.14l.11-.07.11.07v-.14C104.62,143.71,159,106.92,145.1,82Z"/><path class="a" d="M47.81,127.55a3.67,3.67,0,0,1-5.16-1.37,66.82,66.82,0,0,1-.34-62.92,3.68,3.68,0,0,1,5.17-1.45h0a3.65,3.65,0,0,1,1.36,4.82,59.48,59.48,0,0,0,.29,56.09,3.65,3.65,0,0,1-1.31,4.83Z"/><path class="a" d="M152.19,127.55h0a3.65,3.65,0,0,1-1.31-4.83,59.48,59.48,0,0,0,.29-56.09,3.65,3.65,0,0,1,1.36-4.82h0a3.68,3.68,0,0,1,5.16,1.45,66.82,66.82,0,0,1-.34,62.92A3.67,3.67,0,0,1,152.19,127.55Z"/><path class="a" d="M35.64,135.21a3.68,3.68,0,0,1-5.16-1.37,81.49,81.49,0,0,1-.4-78.29,3.68,3.68,0,0,1,5.15-1.42h0A3.65,3.65,0,0,1,36.56,59a74.15,74.15,0,0,0,.37,71.34,3.65,3.65,0,0,1-1.29,4.87Z"/><path class="a" d="M164.36,135.21h0a3.65,3.65,0,0,1-1.29-4.87A74.16,74.16,0,0,0,163.43,59a3.65,3.65,0,0,1,1.34-4.86h0a3.68,3.68,0,0,1,5.15,1.42,81.49,81.49,0,0,1-.4,78.29A3.68,3.68,0,0,1,164.36,135.21Z"/></svg>