<svg xmlns="http://www.w3.org/2000/svg" viewBox="0 0 200 200"><defs><style>.a{fill:#fff;}</style></defs><title>Безымянный-1</title><path class="a" d="M118.16,97.09c-.14-5.72-.38-11.23-.36-16.74,0-2.16.89-4.32.83-6.46a83.65,83.65,0,0,0-1-10.68c-.37-2.35-4.14-4.64-6.59-4.29a1.75,1.75,0,0,0-1.08.73c-1.16,1.81-2.33,3.63-3.36,5.53-1.32,2.43-2.43,3.13-5.1,2.38-5.78-1.61-11.53-3.36-17.29-5.06-2.15-.64-3-2-2.49-4.27q1.55-7.18,3-14.39A6.12,6.12,0,0,1,88.91,39c6.84-2.62,13.63-5.36,20.47-8a5.85,5.85,0,0,1,3.18-.38c4.39,1,8.48,2.62,11.27,6.48C134.34,51.68,145.65,65.67,154,81.67c6.12,11.77,11.41,23.91,14.58,36.86a15.76,15.76,0,0,1,.32,5.78,5.58,5.58,0,0,1-2.06,3.43c-5.49,3.89-11.18,7.42-18.17,8-.76.06-1.56.92-2.13,1.58-6.64,7.66-14.29,13.93-23.89,17.55-11,4.13-22.14,4.05-33.31,1.19-6.31-1.62-12.46-3.88-18.93-5.93L69,152.54c-5.44,9.56-13.83,14.84-24.55,16.38-3.83.55-7.76.32-11.65.5-1.45.07-1.83-.53-1.83-1.93,0-25.53,0-51.06.08-76.59a3.25,3.25,0,0,1,1.49-2.25C42,83,51.66,83.05,61.42,87.52c6.16,2.82,11.66,6.58,15.67,12.25a22.73,22.73,0,0,0,3.39,3.14c4.76-5.64,10.57-9.21,17.77-10A31.42,31.42,0,0,1,118.16,97.09Z"/></svg>