<svg xmlns="http://www.w3.org/2000/svg" viewBox="0 0 200 200"><defs><style>.a{fill:#000;}</style></defs><title>жим</title><path class="a" d="M105.82,135.46A36.63,36.63,0,0,0,127.44,122c7.58-5.73,40.47-8.69,40.47-8.69,1.48-40.29-18.48-54-18.48-54-26.61,8.13-39.55,4.07-39.55,4.07-18.48-8.87-26.24-7-26.24-7-17.36,4.76-30.48,19.28-35.82,26a7.8,7.8,0,0,0,0,9.77c2.45,3,7.08,4.77,15.73-1a29.52,29.52,0,0,0,5.49-4.66c.85-.94,3.45-3,11.3-7.12C104.29,100.79,109.57,119.21,105.82,135.46Z"/><path class="a" d="M79.46,105.68l-27,17.48c.28,3.61,2.18,14,14.78,11.44l20.62-14.52C90.07,116.28,95.73,104.38,79.46,105.68Z"/><path class="a" d="M68.31,95.73l-4.16,1.45a3.89,3.89,0,0,1-4.42-1.38L41.22,106.34c-.44,2.83-1.41,14.25,11.07,15.61l27-17.49C79.78,101.37,79.9,93.65,68.31,95.73Z"/><path class="a" d="M58.94,94.37c-6.07,2.51-9.6.58-11.58-1.81a8.43,8.43,0,0,1,0-10.52l.7-.87c-2.75-1.83-6-.9-8,.07-.11-1.62-.51-11.77,5.4-15.9,3.89-2.72,9.77-2.31,17.47,1.21.36-.28.74-.55,1.1-.82-8.41-4-14.89-4.43-19.26-1.37-7,4.87-5.94,16.74-5.9,17.24l.6-.06a12.47,12.47,0,0,0-1.47.9s-15.19,11.95,2.78,22.95L59.2,94.89Z"/><path class="a" d="M105,136.25l.14-.62-.57-.21c-1.19,3.27-3.11,5.39-5.71,6.28-5.19,1.79-11.62-1.72-12.81-2.41a17.56,17.56,0,0,0,7.25-12s.75-6.25-4.93-6.13L69,134.77c-.07,2.14.25,9.33,7.8,9a27.81,27.81,0,0,0,8.74-4.11l-.32.51c.26.16,5.23,3.23,10.44,3.23a11.08,11.08,0,0,0,3.61-.57c2.88-1,5-3.25,6.33-6.72Z"/></svg>