<svg xmlns="http://www.w3.org/2000/svg" viewBox="0 0 200 200"><defs><style>.a{fill:#fff;}</style></defs><title>психоэмоц пробы</title><path class="a" d="M98.06,72.53A12.4,12.4,0,0,0,98,70.26v-26c0-.44-.44-10.79-7.14-14.23-4.15-2.13-9.58-1.08-16.14,3.14-2.37-.59-9.56-1.94-15,1.89-3.58,2.52-5.62,6.71-6.09,12.47-2.33.44-6.84,1.78-9.41,5.73-2.12,3.25-2.43,7.46-.93,12.53a14.8,14.8,0,0,0-8,6.49c-2.14,3.86-2.21,8.7-.23,14.38-1.46,1.9-4.81,7-4.47,13a16.29,16.29,0,0,0,5.22,10.82c-1.14,2.36-3.23,7.81-1.41,13.23,1.33,3.93,4.41,7,9.16,9.12-.21,2.76-.28,9.28,3.07,13.68a10.57,10.57,0,0,0,6.45,4c.85,2.5,3.46,8.77,9,11.75a14,14,0,0,0,10.25,1.12,12.32,12.32,0,0,0,4.57,5.47,14.62,14.62,0,0,0,8.15,2.21,25.53,25.53,0,0,0,5.35-.61l.32-.07.27-.18a17.19,17.19,0,0,0,7-14.82V72.52Zm-8.66,94.75c-11.55,2.33-14-5-14.3-6.11,0-2.09.77-7.4,3.92-9.76,1.94-1.45,4.64-1.68,8-.67l.95-3.19c-4.46-1.32-8.15-.92-11,1.2-4.08,3.06-5,8.81-5.2,11.36a10.85,10.85,0,0,1-8.11-.74c-5.55-3-7.65-10.65-7.67-10.72l-.29-1.09-1.12-.14a7.44,7.44,0,0,1-5.29-2.91,13.25,13.25,0,0,1-2.29-6.36,13.31,13.31,0,0,0,3.57.5,11.72,11.72,0,0,0,3.66-.58c3.79-1.24,6.83-4.38,9-9.32l-3-1.36c-1.81,4-4.17,6.56-7,7.51a9.57,9.57,0,0,1-6.42-.32,24,24,0,0,1,.17-2.56l.19-1.31L46,130.23c-4.46-1.75-7.29-4.29-8.39-7.56-1.89-5.56,1.7-11.61,1.73-11.67l.72-1.19-1-.92c-3.16-2.8-4.87-6-5.07-9.39-.36-6.19,4.22-11.4,4.27-11.45l.68-.76-.36-1c-1.95-5.11-2.06-9.3-.32-12.47,2.36-4.29,7.45-5.38,7.49-5.39l.79-.16c2.48-.33,7.22-.47,9.88,1.61a5.8,5.8,0,0,1,2.14,4.62l3.33-.15a9.05,9.05,0,0,0-3.41-7.09c-3.64-2.84-9.17-2.65-11.9-2.34-1.27-4.15-1.13-7.49.45-9.92,2.58-4,8.28-4.45,8.33-4.45l1.5-.1.05-1.5c.19-5.37,1.79-9.16,4.75-11.25C66,34.64,72.36,36,74.05,36.4c1,1.27,4.09,5.34,3.38,9.24C77,48,75.19,50,72,51.59l1.49,3c4.16-2.07,6.58-4.88,7.21-8.35.79-4.42-1.64-8.64-3.26-10.87,5-3,9-3.86,11.88-2.4,4.84,2.48,5.32,10.87,5.34,11.36V63.16c-2.15-2.05-5.14-3.11-8.92-3.11v3.33c3.08,0,5.41.83,6.92,2.47a8.42,8.42,0,0,1,2,4.61V99.23a20.6,20.6,0,0,0-8.43-1.66V80H82.91v18c-.35.09-.71.19-1.06.31-4.76,1.67-8.36,5.78-10.67,12.22l3.13,1.13c2-5.44,4.86-8.87,8.62-10.2,4.78-1.69,9.83.41,11.74,1.36v25.25c-.67,1.08-4.79,6.26-21.92,6.26v3.33c8.88,0,15.74-1.34,20.38-4a16.5,16.5,0,0,0,1.54-1v22.82A13.8,13.8,0,0,1,89.41,167.28Z"/><path class="a" d="M71.7,96c-4.63,3.68-8.94,5.07-12.82,4.13-6.41-1.56-9.81-9-9.85-9.11l-3,1.35c.16.37,4.07,9,12.08,11,.35.09.71.14,1.06.19.77,1.42,2.56,5.25,1.27,8.41-.92,2.26-3.34,3.86-7.19,4.74l.74,3.24c5-1.14,8.19-3.41,9.54-6.75s.39-7.17-.62-9.54c3.51-.39,7.16-2.08,10.9-5.06Z"/><path class="a" d="M164.88,86.62c2-5.68,1.91-10.52-.23-14.38a14.8,14.8,0,0,0-8-6.49c1.5-5.06,1.19-9.27-.93-12.53-2.58-3.95-7.09-5.29-9.41-5.73-.46-5.75-2.51-9.94-6.09-12.47-5.43-3.83-12.61-2.49-15-1.89-6.56-4.22-12-5.27-16.14-3.14-6.7,3.44-7.12,13.79-7.14,14.23v26a12.4,12.4,0,0,0-.07,2.26H102v82.87a17.19,17.19,0,0,0,7,14.82l.27.18.32.07a25.52,25.52,0,0,0,5.35.61,14.62,14.62,0,0,0,8.15-2.21,12.32,12.32,0,0,0,4.57-5.47,14,14,0,0,0,10.25-1.12c5.51-3,8.12-9.25,9-11.75a10.57,10.57,0,0,0,6.45-4c3.35-4.4,3.28-10.92,3.07-13.68,4.76-2.12,7.84-5.19,9.16-9.12,1.83-5.42-.26-10.87-1.41-13.23a16.29,16.29,0,0,0,5.22-10.82C169.69,93.59,166.34,88.52,164.88,86.62ZM166,99.48c-.2,3.44-1.9,6.61-5.07,9.41l-1,.92.72,1.19c0,.06,3.62,6.06,1.74,11.65-1.1,3.27-3.93,5.82-8.4,7.58l-1.23.48.19,1.31c0,.08,1.13,8-2.29,12.48a7.44,7.44,0,0,1-5.29,2.91l-1.12.14-.29,1.09c0,.08-2.12,7.73-7.67,10.73a10.84,10.84,0,0,1-8.11.74c-.2-2.55-1.12-8.3-5.2-11.36-2.83-2.12-6.52-2.52-11-1.2l.95,3.19c3.39-1,6.08-.78,8,.67,3.54,2.65,3.89,8.64,3.93,9.77a9,9,0,0,1-3.66,4.91c-2.6,1.7-6.18,2.1-10.63,1.2a13.91,13.91,0,0,1-5.27-11.72V132.75a16.44,16.44,0,0,0,1.54,1c4.64,2.64,11.5,4,20.38,4V134.4c-17,0-21.2-5.16-21.92-6.29V102.88c1.89-1,6.91-3.05,11.72-1.37,3.77,1.32,6.68,4.75,8.64,10.2l3.13-1.13c-2.32-6.44-5.91-10.55-10.67-12.22-.35-.12-.71-.22-1.06-.31V80h-3.33V97.57a20.59,20.59,0,0,0-8.43,1.66V70.45a8.42,8.42,0,0,1,2-4.61c1.51-1.64,3.84-2.47,6.92-2.47V60.05c-3.79,0-6.78,1.05-8.92,3.11V44.31c.09-2.47,1.22-9.24,5.33-11.35,2.85-1.46,6.84-.65,11.88,2.4-1.62,2.23-4.06,6.45-3.26,10.87.62,3.46,3,6.27,7.21,8.35l1.49-3c-3.16-1.58-5-3.58-5.41-5.95-.71-3.9,2.34-8,3.38-9.24,1.7-.44,8-1.76,12.42,1.35,3,2.09,4.56,5.88,4.75,11.25l.06,1.49,1.49.11c.06,0,5.76.47,8.34,4.45,1.58,2.43,1.71,5.77.45,9.92-2.73-.31-8.26-.5-11.9,2.34a9.05,9.05,0,0,0-3.41,7.09l3.33.15a5.8,5.8,0,0,1,2.13-4.61c2.93-2.29,8.06-1.86,10-1.59l.66.13c.05,0,5.1,1.05,7.48,5.36,1.75,3.17,1.65,7.38-.3,12.5l-.36,1,.68.76C161.8,88.11,166.38,93.27,166,99.48Z"/><path class="a" d="M141.93,103.35c8-2,11.92-10.62,12.08-11L151,91c0,.07-3.4,7.52-9.83,9.1-3.88,1-8.2-.43-12.83-4.12l-2.07,2.6c3.74,3,7.39,4.67,10.9,5.06-1,2.37-2,6.08-.62,9.54s4.56,5.61,9.54,6.75l.74-3.24c-3.85-.88-6.27-2.48-7.19-4.74-1.29-3.16.5-7,1.27-8.41C141.22,103.48,141.57,103.43,141.93,103.35Z"/></svg>