<svg xmlns="http://www.w3.org/2000/svg" viewBox="0 0 200 200"><defs><style>.a{fill:#fff;}</style></defs><title>купирование приступа</title><path class="a" d="M97.8,120.34a32.54,32.54,0,1,0,5.43,18A32.51,32.51,0,0,0,97.8,120.34Zm-56.66,18A29.54,29.54,0,0,1,93.5,119.57L44.31,151.64A29.44,29.44,0,0,1,41.15,138.34Zm29.54,29.54A29.42,29.42,0,0,1,47.55,156.7l49.28-32.13a29.55,29.55,0,0,1-26.14,43.32Z"/><path class="a" d="M136.67,56.73a25.52,25.52,0,0,0-25.52,25.52v63.11a25.52,25.52,0,1,0,51,0V82.25A25.52,25.52,0,0,0,136.67,56.73Zm22.52,88.63a22.52,22.52,0,1,1-45,0V116.2h45Z"/><polygon class="a" points="59.07 29.11 81.5 29.34 59.71 62.29 79.21 62.48 37.8 105.96 54.72 72.97 40.1 71.84 59.07 29.11"/></svg>