<svg xmlns="http://www.w3.org/2000/svg" viewBox="0 0 200 200"><defs><style>.a{fill:#000;}</style></defs><title>бег</title><ellipse class="a" cx="146.15" cy="44.8" rx="15.23" ry="16.06"/><path class="a" d="M160.22,89.55,149.81,71.94a9.34,9.34,0,0,0-3.08-3.18l-19.24-12a6.5,6.5,0,0,0-5.76-.58l-19,7.15a8,8,0,0,0-4.23,3.78L89.7,83.81a6.31,6.31,0,0,0,2.61,8.55h0A5.7,5.7,0,0,0,100,89.67L107,75.55,116.72,72l-23,49.28-19.11-3.36a7.68,7.68,0,0,0-8.76,6.53h0a8,8,0,0,0,6.28,9.33l25.61,4.39a8,8,0,0,0,7.8-3.28l11.2-15.49,19.48,15.86,1.39,27.92a7.74,7.74,0,0,0,7.54,7.54h0a7.79,7.79,0,0,0,7.55-8.3l-1.3-32.32a8.54,8.54,0,0,0-2.3-5.53l-15.19-14.51,6.68-26,10,13.66a8.15,8.15,0,0,0,6.88,3.9h17.26a5.92,5.92,0,0,0,5.75-6.07h0a5.92,5.92,0,0,0-5.75-6.07Z"/><path class="a" d="M54,117.3l-29.07-6.86a4.38,4.38,0,0,0-5.22,3.49l-.09.44a4.62,4.62,0,0,0,3.31,5.51L52,126.74a4.38,4.38,0,0,0,5.22-3.49l.09-.44A4.62,4.62,0,0,0,54,117.3Z"/><path class="a" d="M57.24,102.74,33.12,97a4.38,4.38,0,0,0-5.22,3.49l-.09.44a4.62,4.62,0,0,0,3.31,5.51l24.12,5.69a4.38,4.38,0,0,0,5.22-3.49l.09-.44A4.62,4.62,0,0,0,57.24,102.74Z"/><path class="a" d="M61.45,88.93,41.6,84.25a4.38,4.38,0,0,0-5.22,3.49l-.09.44a4.62,4.62,0,0,0,3.31,5.51l19.84,4.68a4.38,4.38,0,0,0,5.22-3.49l.09-.44A4.62,4.62,0,0,0,61.45,88.93Z"/></svg>