<svg xmlns="http://www.w3.org/2000/svg" viewBox="0 0 200 200"><defs><style>.a{fill:#fff;}</style></defs><title>сервис</title><path class="a" d="M140.21,86.83a43,43,0,0,0-2.51-5.89l6.59-10.47-7.38-7.38-7.38-7.38-10.47,6.59a43,43,0,0,0-5.89-2.51l-2.73-12H89.56L86.95,59.27a42.94,42.94,0,0,0-6.68,2.6l-9.8-6.17-7.38,7.38L55.7,70.47l5.79,9.19a43,43,0,0,0-3.31,7.54L47.79,89.56v20.88l9.89,2.25A43,43,0,0,0,61,121l-5.35,8.5,7.38,7.38,7.38,7.38L79,139a43,43,0,0,0,8.35,3.37l2.25,9.89h20.88l2.36-10.38a43,43,0,0,0,7.54-3.31l9.19,5.79,7.38-7.38,7.38-7.38-6.17-9.8a43,43,0,0,0,2.6-6.68l11.48-2.61V89.56ZM100,119.39A19.39,19.39,0,1,1,119.39,100,19.39,19.39,0,0,1,100,119.39Z"/></svg>