<svg xmlns="http://www.w3.org/2000/svg" viewBox="0 0 200 200"><defs><style>.a{fill:#fff;}</style></defs><title>секс</title><path class="a" d="M158.66,30.47h0l-23,6.08,1.94,7.16L148,41,129.16,59.55a36,36,0,0,0-50.85,5.86,36.06,36.06,0,0,0-9.25-1.21C49.39,64.21,33.38,80,33.38,99.4a35.42,35.42,0,0,0,31.55,34.95v12.1H54.41v7.41H64.93v17.78h7.51V153.85H83v-7.41H72.44v-12a35.81,35.81,0,0,0,24.93-13.64,36.06,36.06,0,0,0,9.25,1.21c19.67,0,35.68-15.79,35.68-35.19a34.71,34.71,0,0,0-7.85-22l19.8-19.52L151.06,57l7.26,1.92,8.31-30.57ZM69.06,125a25.56,25.56,0,1,1,0-51.12,26.33,26.33,0,0,1,4.26.35A34.58,34.58,0,0,0,70.94,86.8a35.1,35.1,0,0,0,17.07,30A26,26,0,0,1,69.06,125Zm24.15-16.29A25.5,25.5,0,0,1,80.71,86.8a25.11,25.11,0,0,1,1.77-9.27A25.5,25.5,0,0,1,95,99.4,25.11,25.11,0,0,1,93.21,108.66Zm13.41,3.7a26.31,26.31,0,0,1-4.26-.35,34.57,34.57,0,0,0,2.38-12.61,35.1,35.1,0,0,0-17.07-30,25.74,25.74,0,1,1,18.95,43Z"/></svg>