<svg xmlns="http://www.w3.org/2000/svg" viewBox="0 0 200 200"><defs><style>.a{fill:#000;}</style></defs><title>сон</title><path class="a" d="M165.61,125.8H44.36V64.16h0A19.36,19.36,0,0,0,25,83.52V157.9H44.36V145.16H155.93V157.9h19.36V125.8Z"/><circle class="a" cx="63.72" cy="106.95" r="14.26"/><path class="a" d="M82.06,92.69h65.72a27.51,27.51,0,0,1,27.51,27.51v0a0,0,0,0,1,0,0H82.06a0,0,0,0,1,0,0V92.69A0,0,0,0,1,82.06,92.69Z"/><path class="a" d="M82.13,77.52,92,64.7c.94-1.17,1.84-2.2,2.83-3.37v-.09H83V58h16.6l0,2.47L89.86,73.16c-.9,1.21-1.8,2.29-2.79,3.42v.09H99.8v3.15H82.13Z"/><path class="a" d="M105.81,54.66l6.28-8.17c.6-.75,1.18-1.4,1.81-2.15v-.06h-7.51v-2H117l0,1.58-6.19,8.05c-.57.77-1.15,1.46-1.78,2.18v.06h8.11v2H105.81Z"/></svg>