<svg xmlns="http://www.w3.org/2000/svg" viewBox="0 0 200 200"><defs><style>.a{fill:#000;}</style></defs><title>натуживание</title><polygon class="a" points="147.89 21.58 164.33 21.75 148.36 45.89 162.65 46.03 132.31 77.89 144.7 53.71 133.99 52.89 147.89 21.58"/><circle class="a" cx="96.15" cy="69.22" r="25.06"/><path class="a" d="M156.48,139.58l-4.85-9.07.14.27L129,99.48h-2.28L98,99.65v14.49l2.27,1.17s1.94-5.28,11,.88,12,19.35,11.32,24-10,5-15.21.59c0,0-6.15.88-7.12-4.4s-1-16.13-1-16.13l-3.24-3.23-3.24,3.23s0,10.85-1,16.13-7.12,4.4-7.12,4.4c-5.18,4.4-14.56,4.1-15.21-.59s2.26-17.89,11.32-24,11-.88,11-.88l2.26-1.17V99.67l-28.46.17v0H63.86L41,131l.14-.27-4.85,9a6.39,6.39,0,0,0,3,8.82L65.63,161l0,0,4.66,2.27a8.13,8.13,0,0,0,10.76-3.58,7.85,7.85,0,0,0,.45-6.1,8,8,0,0,0-4.09-4.65L65.21,143l.27-.56-8-3.64,8.21-9.65v13L77.86,148a8.94,8.94,0,0,1,4.6,5.23,8.85,8.85,0,0,1-.51,6.87,9.13,9.13,0,0,1-12.09,4l-4.17-2V178.4H127V162.13l-4.08,2a9,9,0,1,1-8-16.21L127,142V128.8l8.3,9.81-7.81,4,.09.19-12.22,6a8,8,0,0,0-3.64,10.81,8.1,8.1,0,0,0,10.76,3.6l4.66-2.28,0,0,26.27-12.54A6.44,6.44,0,0,0,156.48,139.58Z"/></svg>