<svg xmlns="http://www.w3.org/2000/svg" viewBox="0 0 200 200"><defs><style>.a{fill:#fff;}</style></defs><title>учащ дыхание</title><path class="a" d="M142,103.63c-20.24-15.18-24.58-2.17-24.58-2.17l-5.06-2.89V61h-8.68V98.57l-5.06,2.89s-4.34-13-24.58,2.17-26.75,47.72-25.3,59.28,22.41,12.29,34,1.45c0,0,13.74,2.17,15.91-10.84s2.17-39.76,2.17-39.76l7.23-8,7.23,8s0,26.75,2.17,39.76,15.91,10.84,15.91,10.84c11.57,10.84,32.53,10.12,34-1.45S162.25,118.81,142,103.63Z"/><path class="a" d="M61.38,33.15a24,24,0,1,0,24,24A24,24,0,0,0,61.38,33.15Zm12,40L59.28,59.92V39.27h5V57.76L76.8,69.55Z"/><path class="a" d="M61.77,27.94A29.27,29.27,0,1,0,91,57.21,29.27,29.27,0,0,0,61.77,27.94Zm-.38,56.19a27,27,0,1,1,27-27A27,27,0,0,1,61.38,84.13Z"/></svg>