<svg xmlns="http://www.w3.org/2000/svg" viewBox="0 0 200 200"><defs><style>.a{fill:#fff;}</style></defs><title>тренажер</title><path class="a" d="M164.71,129.77h0A15.14,15.14,0,0,0,152,114.83l-9.72-1.61v-59l18.83-8.4v0l.15-.06-6.77-16.46-7.34,3L151,41.6,134.54,49h-.43v62.91l-38-6.29-9-25.14h5.7a12,12,0,0,0-12-12H58.28a12,12,0,0,0,12,12h4l8.23,22.89L59.2,99.46a15.14,15.14,0,0,0-17.61,15.13l.4,31.85a15.14,15.14,0,0,0,17.8,14.72l79.1-14.1L155,167.93a4.65,4.65,0,1,0,7.39-5.66l-13.23-17,3-.54A15.14,15.14,0,0,0,164.71,129.77Zm-58.27,5.3a13,13,0,0,1-10.17,2.67L83,135.6a16.73,16.73,0,1,1,.66-4.64c0,.23,0,.46,0,.69l13.24,2.15a9,9,0,0,0,7-1.85l5.51-4.41,2.5,3.12Z"/><path class="a" d="M75.8,161.47H39.94a4.65,4.65,0,1,0,0,9.31H75.8a4.65,4.65,0,1,0,0-9.31Z"/><path class="a" d="M64.43,126a6,6,0,1,0,8,7.85l-5.81-.94.64-3.95,5.46.88A6,6,0,0,0,64.43,126Z"/></svg>