<svg xmlns="http://www.w3.org/2000/svg" viewBox="0 0 200 200"><defs><style>.a{fill:#000;}</style></defs><title>вопрос</title><path class="a" d="M86.39,131l-.25-5.25c-.9-10.91,3.06-22.7,13.47-34.5C109,80.82,114.24,73.11,114.49,64c.29-10.27-6-17.31-18.65-17.87-7.25-.2-15.38,2-20.52,5.67L70.84,39c6.79-4.65,18.36-7.55,29-7.25C123,32.43,133.12,47,132.69,62.34c-.39,13.7-8.32,23.35-18.32,34.56-9.16,10.23-12.63,19-12.32,29.29l.05,5.24ZM84.5,157.43c.18-6.43,4.66-10.83,10.74-10.66s10.13,4.81,9.95,11.24c-.17,6.08-4.3,10.67-10.74,10.48C88.37,168.32,84.33,163.51,84.5,157.43Z"/></svg>