<svg xmlns="http://www.w3.org/2000/svg" viewBox="0 0 200 200"><defs><style>.a{fill:#fff;}</style></defs><title>ходьба</title><circle class="a" cx="97.11" cy="44.6" r="15.6" transform="translate(-7.26 21.66) rotate(-12.27)"/><path class="a" d="M109.15,109,105.93,82.7h0l10.15,11.61h0l17.66,9.4a6.38,6.38,0,0,0,8.26-2h0a5.28,5.28,0,0,0-2.08-7.57l-17.42-9.6h0L107.72,67.83h0l-24-3.29A7.44,7.44,0,0,0,78,66L62.43,78.42A7.2,7.2,0,0,0,59.74,83L57.21,100.2c-.45,3.08,2.17,5.82,5.57,5.82h0a6.43,6.43,0,0,0,6.4-5.23l1.69-13.71h0l8-6.26h0L75.58,116.3h0l-.45,16.52h0L59.09,157a7.44,7.44,0,0,0,2.24,10.77h0a9.1,9.1,0,0,0,12.07-2.08l16.79-25a6,6,0,0,0,1-2.14l3.34-18.93h0l7.75,15.9h0l7,28.67c.59,4.22,4.75,7.24,9.37,6.81h0c4.8-.45,6.44-4.9,5.83-9.27l-4.93-26.36a19.45,19.45,0,0,0-2.44-7.06h0l-8-19.31Z"/></svg>