<svg xmlns="http://www.w3.org/2000/svg" viewBox="0 0 200 200"><defs><style>.a{fill:#fff;}</style></defs><title>слабость</title><path class="a" d="M82,89.57a1.56,1.56,0,0,0,.84-1.87l-1.79.82a.4.4,0,0,0-.31.58A1,1,0,0,0,82,89.57Z"/><path class="a" d="M115.69,84.54a1,1,0,0,0-.4.09,1.56,1.56,0,0,0-.84,1.87l1.79-.82c.23,0,.3-.14.33-.23a.45.45,0,0,0,0-.35A1,1,0,0,0,115.69,84.54Z"/><path class="a" d="M100,42.34A57.66,57.66,0,1,0,157.66,100,57.66,57.66,0,0,0,100,42.34ZM75.31,78.42a10.85,10.85,0,0,1,14.39,5.3,9,9,0,0,1-4.39,11.91A7.48,7.48,0,0,1,75.39,92a6.29,6.29,0,0,1,3.07-8.34,5.33,5.33,0,0,1,7.07,2.6,4.56,4.56,0,0,1-2.23,6.05,4,4,0,0,1-5.24-1.93,3.46,3.46,0,0,1-.23-.67,3.28,3.28,0,0,0,.28,1,4.48,4.48,0,0,0,5.94,2.19A6,6,0,0,0,87,85a7.85,7.85,0,0,0-10.41-3.83,10.19,10.19,0,0,0-5,13.51l-2.72,1.26A13.19,13.19,0,0,1,75.31,78.42Zm49.4,52.29c-26.64-21-48.81-1-49.74-.14l-3.63-3.9c.26-.24,26.39-24,56.67-.14Zm4.16-42.34A13.09,13.09,0,0,1,122,95.78a10.84,10.84,0,0,1-14.39-5.3A9,9,0,0,1,112,78.56,7.49,7.49,0,0,1,122,82.22a6.28,6.28,0,0,1-3.07,8.34,5.33,5.33,0,0,1-7.07-2.6A4.56,4.56,0,0,1,114,81.9a4,4,0,0,1,5.24,1.93,3.49,3.49,0,0,1,.23.68,3.3,3.3,0,0,0-.29-1,4.48,4.48,0,0,0-5.95-2.19,6,6,0,0,0-2.92,7.93,7.84,7.84,0,0,0,10.41,3.83,10.18,10.18,0,0,0,5-13.51l2.72-1.26A13.09,13.09,0,0,1,128.87,88.37Z"/></svg>