<svg xmlns="http://www.w3.org/2000/svg" viewBox="0 0 200 200"><defs><style>.a{fill:#000;}</style></defs><title>активность</title><path class="a" d="M148.68,52.62a4.66,4.66,0,0,0,0-7.33,6.88,6.88,0,0,0-8.62,0l-25.75,21.9H85.54L59.9,45.29a6.83,6.83,0,0,0-8.58,0h0a4.67,4.67,0,0,0,0,7.33L83.22,79.87v35.4L68.14,161.8c-1.21,3.74,1.35,7.61,5.73,8.64h0c4.38,1,8.91-1.16,10.12-4.9l15.9-48.22,16,48.22c1.22,3.74,5.77,5.93,10.16,4.9s7-4.9,5.76-8.64l-15.14-46.53V79.87Z"/><circle class="a" cx="100.07" cy="45.34" r="16.04"/></svg>