<svg xmlns="http://www.w3.org/2000/svg" viewBox="0 0 200 200"><defs><style>.a{fill:#000;}</style></defs><title>повтор наложен манжеты</title><path class="a" d="M89.31,110a32,32,0,0,0,9.62-4.45c-18.6-4.69-22-20.71-22-20.71-.88-5.29.7-6.86.7-6.86-11,7.12-2.93,19.79-2.93,19.79A32.33,32.33,0,0,0,89.31,110Z"/><path class="a" d="M69.95,107.34a21.56,21.56,0,0,1,5.83-6.56,21.73,21.73,0,0,1-3.59-6.14S64.07,102,69.95,107.34Z"/><path class="a" d="M108.94,93.57c-4.63,14.74-20.53,17.56-20.53,17.56-17.41,3.18-20.74-5.81-20.74-5.81.69,13,13.4,14,13.4,14,14.1,1.85,24-7.77,24-7.77C114.24,103.29,108.94,93.57,108.94,93.57Z"/><path class="a" d="M92.48,86.76c-5.84-.25-13,2.64-13,2.64a33.9,33.9,0,0,0,4.77,6.75c7.3-2.36,15.74-1,15.74-1A38.17,38.17,0,0,0,92.48,86.76Z"/><path class="a" d="M77.55,81.08C84.52,79.9,92.6,86,93,86.26c7.06,4.86,10.88,14.57,10.88,14.57a26,26,0,0,0,4.53-8.27c-7.59-15.8-22-17.08-22-17.08C76.8,74.65,77.55,81.08,77.55,81.08Z"/><path class="a" d="M153,36.92c-5.44-5.7-13.14-2.38-16.21-.68a147.62,147.62,0,0,1-13.72,6.71c-1,.42-3.72,1.23-6.62,2.09-5.64,1.67-8,2.43-9,3A68.29,68.29,0,0,0,94.8,44.88c-1.6-.2-3.22-.51-4.88-.85q-1.26-.29-2.55-.53a52.17,52.17,0,0,0-12.31-1.56A14.37,14.37,0,0,0,67.68,43c-3.18,1.55-4.51,4.67-5.48,7.74A52.42,52.42,0,0,0,60,60c-.13.75-.25,1.47-.38,2.13C59,65.4,58.43,68.75,57.88,72,57,77,56.11,82.27,55,87.31q-.42,1.94-.84,3.87c-1.06,3.65-2.06,7.36-3,11-1,3.9-2.11,7.93-3.27,11.87l-.32,1.07Q47.28,116,47,117a56.28,56.28,0,0,0-2.25,9.79l-.13.64c-.71,3.45-1.45,7,1.57,10.34,3.7,4.1,7.9,5.76,12.35,7.52,1.5.6,3.06,1.21,4.63,1.94,2.75,1.27,5.57,2.32,8.3,3.34,1.59.59,3.18,1.18,4.75,1.82a129.54,129.54,0,0,0,16.66,5c2.85.72,5.79,1.47,8.65,2.31a84,84,0,0,1,11.78,4.14c.43.2.89.44,1.38.69a12.75,12.75,0,0,0,4.68,1.73h.33c5.06,0,7.32-7.31,8.83-12.17.37-1.2.69-2.24,1-3a115.21,115.21,0,0,0,3.83-11.68l.44-1.52c.82-2.79,1.6-5.62,2.38-8.46,1.52-5.48,3.09-11.16,4.93-16.68.35-1,.7-2.07,1.06-3.1,1.06-3.08,2.17-6.28,3-9.56.4-1.66.68-3.32,1-4.93a49.41,49.41,0,0,1,1.72-7.55,53.67,53.67,0,0,0,1.94-8.71c.19-1.14.38-2.29.6-3.46.08-.45.22-.95.36-1.48.45-1.71,1-3.64.5-5.34a5.24,5.24,0,0,0-.54-1.21c1-.79,1.37-2.59,1.59-3.9a8.7,8.7,0,0,1,.21-1,65.22,65.22,0,0,0,3-10.95l.08-.56C156,47.3,157,41.07,153,36.92Zm-106.3,90.2c.05-.26.11-.52.16-.78.62-3.3,1.29-6.17,2-8.81l.31-1,.26-.86c.19-.61.39-1.21.6-1.8a192.45,192.45,0,0,0,6-22.18c.18-.61.34-1.24.53-1.85a128,128,0,0,0,3.48-17.58c.38-2.57.78-5.23,1.24-7.79.18-1,.34-2,.51-3A69.55,69.55,0,0,1,63.59,53l0-.15c.13-.43.25-.85.39-1.28,1.18-3.24,3-6,6-6.88A19.86,19.86,0,0,1,75.18,44c.93.07,1.87.18,2.8.29l1.42.17c2.74.29,5.22.61,7.59,1.05l.43.09,2.07.43c.85.2,1.69.41,2.53.66A131,131,0,0,1,116.54,57c17.8,9.6,15.49,34.5,13.67,44.77a74.28,74.28,0,0,1-9.07,25.53c-4.94,8.38-9.9,12.32-18.94,15.06-18,5.45-39.06-.31-50-4.22C47.22,136.32,46.22,132,46.72,127.12Zm102-53.64c-.16.58-.3,1.13-.39,1.62-.23,1.18-.42,2.35-.61,3.51A51.45,51.45,0,0,1,145.9,87a51,51,0,0,0-1.8,7.85c-.27,1.58-.55,3.2-.93,4.8-.78,3.19-1.86,6.34-2.91,9.38-.36,1-.72,2.08-1.06,3.12-1.86,5.57-3.44,11.27-5,16.78-.78,2.83-1.56,5.64-2.38,8.43l-.44,1.53a113.8,113.8,0,0,1-3.75,11.48c-.33.81-.66,1.88-1,3.13-1.35,4.37-3.43,11-7.13,10.76h0a11.55,11.55,0,0,1-3.87-1.5c-.51-.27-1-.52-1.46-.73a85.64,85.64,0,0,0-12-4.24c-2.89-.85-5.85-1.6-8.72-2.33a127.9,127.9,0,0,1-16.41-5c-1.59-.64-3.22-1.25-4.79-1.83-2.7-1-5.48-2-8.16-3.28-1.62-.75-3.2-1.38-4.73-2a48.94,48.94,0,0,1-6.64-3c8,2.76,20.39,6.18,33.28,6.18a58.34,58.34,0,0,0,16.86-2.31c9.6-2.91,14.85-7.08,20.08-16a76.19,76.19,0,0,0,9.31-26.2c1.9-10.69,4.26-36.66-14.69-46.88-2.65-1.43-5.32-2.75-8-4l.28,0A288.68,288.68,0,0,1,142,64.07c.38.18,1.11.63,1.88,1.1a30.34,30.34,0,0,0,4.36,2.38,4.2,4.2,0,0,1,1,1.64C149.59,70.37,149.15,72,148.76,73.48Zm4.75-22.75-.08.56A64.19,64.19,0,0,1,150.54,62a9.61,9.61,0,0,0-.26,1.25c-.1.6-.42,2.42-.77,2.64l-.15,0a16.32,16.32,0,0,0-3.08-2.26,115,115,0,0,0-25.32-11c-2.87-.83-5.78-1.85-8.59-2.83l-2-.68c1.9-.63,4.59-1.43,6.63-2,3.08-.91,5.74-1.7,6.84-2.17a149.58,149.58,0,0,0,13.9-6.8c2.66-1.47,9.32-4.38,13.79.31C154.85,41.74,154,47.37,153.51,50.73Z"/></svg>