<svg xmlns="http://www.w3.org/2000/svg" viewBox="0 0 200 200"><defs><style>.a{fill:#000;}</style></defs><title>эмоц нагрузка</title><polygon class="a" points="155.72 83.11 148.63 76.01 168.5 71.75 160.34 63.59 137.98 72.46 142.95 78.14 124.85 84.17 155.72 83.11"/><polygon class="a" points="99.14 70.77 114.08 43.73 104.35 46.17 110.9 26.93 99.7 29.75 95.83 53.49 103.26 52.14 99.14 70.77"/><circle class="a" cx="100" cy="100.29" r="21.58"/><path class="a" d="M145.42,111.81a9.55,9.55,0,0,0-18,6.31l4.1,11.78h-63l4.1-11.78a9.55,9.55,0,0,0-18-6.31L48.21,129.9l-4.42,12.55A6.52,6.52,0,0,0,50.31,149H78.42v24.09h43.16V149h28.11a6.52,6.52,0,0,0,6.52-6.52l-4.42-12.55Z"/><polygon class="a" points="44.28 83.11 75.15 84.17 57.05 78.14 62.02 72.46 39.66 63.59 31.5 71.75 51.37 76.01 44.28 83.11"/></svg>