<svg xmlns="http://www.w3.org/2000/svg" viewBox="0 0 200 200"><defs><style>.a{fill:#000;}</style></defs><title>головная боль</title><path class="a" d="M100,61.83a59.69,59.69,0,1,0,59.69,59.69A59.69,59.69,0,0,0,100,61.83Zm-22,40a7.64,7.64,0,1,1-7.64,7.64A7.64,7.64,0,0,1,78,101.8Zm47.61,51.51c-27.57-21.75-50.53-1-51.5-.15l-3.76-4c.27-.25,27.32-24.87,58.67-.15Zm-4.13-36.23a7.64,7.64,0,1,1,7.64-7.64A7.64,7.64,0,0,1,121.45,117.08Z"/><polygon class="a" points="139.25 18.79 151.76 18.92 139.61 37.29 150.49 37.4 127.4 61.64 136.83 43.24 128.68 42.62 139.25 18.79"/></svg>