<svg xmlns="http://www.w3.org/2000/svg" viewBox="0 0 200 200"><defs><style>.a{fill:#000;}</style></defs><title>дурнота</title><path class="a" d="M100,41.73A58.27,58.27,0,1,0,158.27,100,58.27,58.27,0,0,0,100,41.73Zm20.94,39a7.46,7.46,0,1,1-7.46,7.46A7.46,7.46,0,0,1,120.94,80.75Zm-42.44,0A7.46,7.46,0,1,1,71,88.21,7.46,7.46,0,0,1,78.5,80.75ZM121,127.29a16.39,16.39,0,0,1-7.95-2l-.2-.12-.17-.16c-6-5.69-11.18-.66-11.75-.07l-1.38-1.31,1.31,1.39a12.07,12.07,0,0,1-8.37,3.7h-.3A13,13,0,0,1,83.9,125c-6-5.65-11.15-.63-11.72,0l-2.9-2.76a13.32,13.32,0,0,1,8.54-3.86,12.21,12.21,0,0,1,8.86,3.78l.08.08c.54.56,5.53,5.41,11.33-.06a13.29,13.29,0,0,1,8.49-3.8,12.15,12.15,0,0,1,8.66,3.6c1.17.61,7.81,3.69,13.62-1.82l2.75,2.9A15.11,15.11,0,0,1,121,127.29Z"/></svg>