<svg xmlns="http://www.w3.org/2000/svg" viewBox="0 0 200 200"><defs><style>.a{fill:#000;}</style></defs><title>лекарства</title><path class="a" d="M97.38,107.23a36,36,0,1,0,6,19.92A36,36,0,0,0,97.38,107.23Zm-63,19.92a33,33,0,0,1,58.75-20.71l-55,35.9A32.9,32.9,0,0,1,34.34,127.16Zm33,33A32.88,32.88,0,0,1,41.28,147.4l55.14-36a33,33,0,0,1-29,48.74Z"/><path class="a" d="M140.4,36.82a28.26,28.26,0,0,0-28.26,28.26v69.86a28.26,28.26,0,1,0,56.51,0V65.07A28.26,28.26,0,0,0,140.4,36.82Zm25.26,98.11a25.26,25.26,0,1,1-50.51,0v-32.6h50.51Z"/></svg>