<svg xmlns="http://www.w3.org/2000/svg" viewBox="0 0 200 200"><defs><style>.a{fill:#000;}</style></defs><title>душ</title><path class="a" d="M138.87,89.34A34.35,34.35,0,0,0,109.74,73.2H105.3V31.55H93.19V73.2H88.75A34.35,34.35,0,0,0,59.62,89.34L47,109.54h104.5Z"/><path class="a" d="M52.22,113.93s-11.76,12.89,0,15.17C64,126.82,52.22,113.93,52.22,113.93Z"/><path class="a" d="M86.35,113.93s-11.76,12.89,0,15.17C98.1,126.82,86.35,113.93,86.35,113.93Z"/><path class="a" d="M115.17,113.93s-11.76,12.89,0,15.17C126.93,126.82,115.17,113.93,115.17,113.93Z"/><path class="a" d="M99.24,153.31s-11.74,12.87,0,15.15C111,166.18,99.24,153.31,99.24,153.31Z"/><path class="a" d="M100.76,127.58s-11.76,12.89,0,15.17C112.51,140.48,100.76,127.58,100.76,127.58Z"/><path class="a" d="M115.15,140.44s-11.74,12.87,0,15.15C126.88,153.31,115.15,140.44,115.15,140.44Z"/><path class="a" d="M130.34,126.82s-11.76,12.89,0,15.17C142.09,139.72,130.34,126.82,130.34,126.82Z"/><path class="a" d="M71.18,126.82s-11.76,12.89,0,15.17C82.94,139.72,71.18,126.82,71.18,126.82Z"/><path class="a" d="M86.35,140.48s-11.76,12.89,0,15.17C98.1,153.37,86.35,140.48,86.35,140.48Z"/><path class="a" d="M147.78,114.69s-11.76,12.89,0,15.17C159.54,127.58,147.78,114.69,147.78,114.69Z"/></svg>