<svg xmlns="http://www.w3.org/2000/svg" viewBox="0 0 200 200"><defs><style>.a{fill:#000;}</style></defs><title>подъем по лестнице</title><circle class="a" cx="63.69" cy="42.54" r="12.52" transform="translate(-7.59 14.51) rotate(-12.27)"/><path class="a" d="M89,107.67,73.93,94.8h0L69.79,74h0l8.81,8.69h0l14.69,6.48a5.12,5.12,0,0,0,6.5-2.06h0a4.24,4.24,0,0,0-2.12-5.94L83.16,74.49h0L70.34,62h0L50.92,60.75a6,6,0,0,0-4.48,1.53L34.72,73.12a5.78,5.78,0,0,0-1.88,3.82l-1,13.92a4.27,4.27,0,0,0,4.8,4.33h0a5.16,5.16,0,0,0,4.81-4.57L42,79.56h0l6-5.48h0l-.51,28.58h0l2.16,14.84.12,1.56-7.58,27.71c-.62,2.16-.19,3.86,1.53,6.08A3.59,3.59,0,0,0,45.3,154l1.73.65c1.48-.11.71.37,2.68-.39s2.76-2.66,3.21-4.63l8.32-28,1.61-17.48h0l15.86,9.78-.44-.38,6.43,22.12c.87,2.93,3,5.32,6.71,4.7h0c4.56-1.9,5-3.11,4.21-6.58L89,107.67"/><polygon class="a" points="168.18 116.4 126.65 116.4 126.65 128.94 98.52 128.94 98.52 142.62 69.06 142.62 69.06 156.3 39.59 156.3 39.59 169.98 81.11 169.98 81.11 156.3 110.58 156.3 110.58 142.62 140.05 142.62 140.05 130.08 168.18 130.08 168.18 116.4"/></svg>