<svg xmlns="http://www.w3.org/2000/svg" viewBox="0 0 200 200"><defs><style>.a{fill:#000;}</style></defs><title>обморок</title><circle class="a" cx="92.99" cy="59.95" r="15.6" transform="translate(-16.74 45.77) rotate(-25.45)"/><path class="a" d="M119.38,119.87,110.25,95h0l12.52,9h0l19.34,5.13a6.38,6.38,0,0,0,7.6-3.79h0a5.28,5.28,0,0,0-3.76-6.9l-19.14-5.38h0l-18.2-12.95h0L84.47,82.42a7.44,7.44,0,0,0-5.21,2.75L66.93,100.79a7.2,7.2,0,0,0-1.58,5.06l1.46,17.33c.26,3.1,3.44,5.18,6.75,4.4h0a6.43,6.43,0,0,0,5-6.55L77.12,107.3h0l6.34-7.91h0l4.91,35.28h0l3.33,16.19h0L81.58,178a7.44,7.44,0,0,0,4.64,10h0a9.1,9.1,0,0,0,11.28-4.78L108.14,155a6,6,0,0,0,.48-2.31l-1.06-19.19h0l11.17,13.72h0l13.34,26.32c1.53,4,6.27,6,10.68,4.5h0c4.57-1.53,5.16-6.24,3.57-10.36l-10.81-24.54a19.45,19.45,0,0,0-4-6.32h0l-12.14-17Z"/><polygon class="a" points="65.36 49.06 64.8 52.35 67.76 53.89 64.46 54.38 63.9 57.66 62.42 54.68 59.12 55.16 61.5 52.83 60.02 49.84 62.98 51.39 65.36 49.06"/><polygon class="a" points="94.16 26.12 93.41 30.5 97.35 32.56 92.95 33.21 92.21 37.59 90.23 33.61 85.84 34.25 89.02 31.14 87.04 27.16 90.98 29.23 94.16 26.12"/><polygon class="a" points="133.37 58.57 132.51 63.6 137.03 65.97 131.98 66.71 131.13 71.73 128.87 67.16 123.82 67.91 127.47 64.34 125.2 59.77 129.72 62.14 133.37 58.57"/><path class="a" d="M56.11,86.73a6.26,6.26,0,0,1-5.67-3.63,5.1,5.1,0,0,1,2.49-6.76,4.18,4.18,0,0,1,5.54,2A3.44,3.44,0,0,1,56.79,83,2.85,2.85,0,0,1,53,81.56a2.38,2.38,0,0,1,1.16-3.16,2,2,0,0,1,2.66,1A1.71,1.71,0,0,1,56,81.64a1.47,1.47,0,0,1-1.94-.71L55,80.5a.46.46,0,0,0,.61.23.7.7,0,0,0,.34-.93,1,1,0,0,0-1.33-.49,1.38,1.38,0,0,0-.67,1.83,1.85,1.85,0,0,0,2.46.9,2.44,2.44,0,0,0,1.19-3.24,3.18,3.18,0,0,0-4.21-1.55,4.1,4.1,0,0,0-2,5.43,5.24,5.24,0,0,0,7,2.56,6.67,6.67,0,0,0,3.26-8.85l.91-.42a7.67,7.67,0,0,1-3.75,10.18A6.22,6.22,0,0,1,56.11,86.73Z"/><path class="a" d="M69.65,37a8.81,8.81,0,0,1-8.2-5.58,7.14,7.14,0,0,1,4-9.25A5.81,5.81,0,0,1,73,25.46a4.75,4.75,0,0,1-2.69,6.15,3.9,3.9,0,0,1-5.05-2.21,3.22,3.22,0,0,1,1.82-4.17,2.68,2.68,0,0,1,3.47,1.51,2.24,2.24,0,0,1-1.27,2.9,1.89,1.89,0,0,1-2.45-1.07,1.61,1.61,0,0,1,.91-2.09l.37.93a.61.61,0,0,0-.35.79.89.89,0,0,0,1.15.5,1.24,1.24,0,0,0,.7-1.61,1.68,1.68,0,0,0-2.17-.95A2.22,2.22,0,0,0,66.21,29,2.9,2.9,0,0,0,70,30.68a3.74,3.74,0,0,0,2.12-4.85,4.81,4.81,0,0,0-6.23-2.72,6.13,6.13,0,0,0-3.47,7.95,7.8,7.8,0,0,0,10.1,4.41l.37.93A8.75,8.75,0,0,1,69.65,37Z"/><path class="a" d="M110.21,23.08A4.39,4.39,0,0,1,106,19.75a3.62,3.62,0,0,1,2.64-4.37,3,3,0,0,1,3.62,2.18,2.49,2.49,0,0,1-1.82,3A2.1,2.1,0,0,1,107.86,19a1.78,1.78,0,0,1,1.29-2.15A1.52,1.52,0,0,1,111,18l-1,.24a.52.52,0,0,0-.24-.32.52.52,0,0,0-.39-.06.77.77,0,0,0-.56.94,1.09,1.09,0,0,0,1.32.8,1.49,1.49,0,0,0,1.09-1.81,2,2,0,0,0-2.41-1.45,2.61,2.61,0,0,0-1.91,3.16A3.39,3.39,0,0,0,111,22a4.37,4.37,0,0,0,3.18-5.28,5.58,5.58,0,0,0-6.75-4.07,7.1,7.1,0,0,0-5.18,8.59l-1,.24a8.1,8.1,0,0,1,5.91-9.8,6.59,6.59,0,0,1,8,4.8A5.37,5.37,0,0,1,111.28,23,4.42,4.42,0,0,1,110.21,23.08Z"/></svg>