<svg xmlns="http://www.w3.org/2000/svg" viewBox="0 0 200 200"><defs><style>.a{fill:#000;}</style></defs><title>тренировка</title><rect class="a" x="65.43" y="133.87" width="68.8" height="6.38"/><rect class="a" x="50.66" y="113.06" width="10.87" height="48.33" rx="5.15" ry="5.15"/><rect class="a" x="138.46" y="113.06" width="10.87" height="48.33" rx="5.15" ry="5.15" transform="translate(287.8 274.45) rotate(180)"/><path class="a" d="M36.77,127v6h0a4.23,4.23,0,0,0-4.23,4.23h0a4.23,4.23,0,0,0,4.23,4.23h0v6a4.83,4.83,0,0,0,4.83,4.83h0a4.83,4.83,0,0,0,4.83-4.83V127a4.83,4.83,0,0,0-4.83-4.83h0A4.83,4.83,0,0,0,36.77,127Z"/><path class="a" d="M163.23,133h0v-6a4.83,4.83,0,0,0-4.83-4.83h0a4.83,4.83,0,0,0-4.83,4.83v20.54a4.83,4.83,0,0,0,4.83,4.83h0a4.83,4.83,0,0,0,4.83-4.83v-6h0a4.23,4.23,0,0,0,4.23-4.23h0A4.23,4.23,0,0,0,163.23,133Z"/><path class="a" d="M105.87,68.3c-.06-2.56-.17-5-.16-7.47,0-1,.4-1.93.37-2.89a37.33,37.33,0,0,0-.46-4.77,3,3,0,0,0-2.94-1.92.78.78,0,0,0-.48.33c-.52.81-1,1.62-1.5,2.47-.59,1.09-1.08,1.4-2.28,1.06-2.58-.72-5.15-1.5-7.72-2.26a1.44,1.44,0,0,1-1.11-1.91q.69-3.2,1.32-6.42a2.73,2.73,0,0,1,1.9-2.14C95.87,41.21,98.9,40,102,38.82a2.61,2.61,0,0,1,1.42-.17,8,8,0,0,1,5,2.89c4.69,6.48,9.74,12.73,13.45,19.87a74,74,0,0,1,6.51,16.45,7,7,0,0,1,.14,2.58,2.49,2.49,0,0,1-.92,1.53c-2.45,1.74-5,3.31-8.11,3.57-.34,0-.69.41-1,.71a26.49,26.49,0,0,1-10.66,7.83A24.2,24.2,0,0,1,93,94.62c-2.82-.72-5.56-1.73-8.45-2.65L83.93,93a14.3,14.3,0,0,1-11,7.31c-1.71.25-3.47.14-5.2.22-.65,0-.82-.24-.82-.86,0-11.39,0-22.79,0-34.18a1.45,1.45,0,0,1,.67-1A13.14,13.14,0,0,1,80.54,64a16.81,16.81,0,0,1,7,5.47,10.14,10.14,0,0,0,1.51,1.4A11.93,11.93,0,0,1,97,66.42,14,14,0,0,1,105.87,68.3Z"/></svg>